<?xml version="1.0" encoding="UTF-8" standalone="no"?>
<svg
   xmlns:dc="http://purl.org/dc/elements/1.1/"
   xmlns:cc="http://creativecommons.org/ns#"
   xmlns:rdf="http://www.w3.org/1999/02/22-rdf-syntax-ns#"
   xmlns:svg="http://www.w3.org/2000/svg"
   xmlns="http://www.w3.org/2000/svg"
   xmlns:sodipodi="http://sodipodi.sourceforge.net/DTD/sodipodi-0.dtd"
   xmlns:inkscape="http://www.inkscape.org/namespaces/inkscape"
   fill="#000000"
   height="18"
   viewBox="0 0 24 24"
   width="18"
   id="svg2997"
   version="1.1"
   inkscape:version="0.48.4 r9939"
   sodipodi:docname="ic_web_asset_black_18px.png">
  <metadata
     id="metadata3007">
    <rdf:RDF>
      <cc:Work
         rdf:about="">
        <dc:format>image/svg+xml</dc:format>
        <dc:type
           rdf:resource="http://purl.org/dc/dcmitype/StillImage" />
        <dc:title></dc:title>
      </cc:Work>
    </rdf:RDF>
  </metadata>
  <defs
     id="defs3005" />
  <sodipodi:namedview
     pagecolor="#ffffff"
     bordercolor="#666666"
     borderopacity="1"
     objecttolerance="10"
     gridtolerance="10"
     guidetolerance="10"
     inkscape:pageopacity="0"
     inkscape:pageshadow="2"
     inkscape:window-width="640"
     inkscape:window-height="480"
     id="namedview3003"
     showgrid="false"
     inkscape:zoom="13.111111"
     inkscape:cx="8.9999999"
     inkscape:cy="8.9999999"
     inkscape:window-x="0"
     inkscape:window-y="0"
     inkscape:window-maximized="0"
     inkscape:current-layer="svg2997" />
  <path
     d="m 20.457626,0.54237293 -16.6101684,0 c -1.3169491,0 -2.3728814,1.19173737 -2.3728814,2.64830507 l 0,15.88983 c 0,1.456569 1.0559323,2.648306 2.3728814,2.648306 l 16.6101684,0 c 1.305086,0 2.372882,-1.191737 2.372882,-2.648306 l 0,-15.88983 c 0,-1.4565677 -1.055933,-2.64830507 -2.372882,-2.64830507 z M 21.677965,20.707627 2.5254237,20.605933 2.4237288,3.6103567 l 19.2542362,0 z"
     id="path2999"
     inkscape:connector-curvature="0"
     style="fill:#cccccc"
     sodipodi:nodetypes="sssssssssccccc" />
  <path
     d="M0 0h24v24H0z"
     fill="none"
     id="path3001" />
  <path
     d="M 3.6314408,11.62406 C 3.6339135,9.7990868 5.0884593,8.3190831 6.8765545,8.3233069 l 4.1826855,0.00996 0.001,-2.0277094 -4.1826861,-0.00994 C 3.9911344,6.2888375 1.646534,8.6738384 1.6435706,11.619355 c -0.00297,2.945513 2.3372812,5.341627 5.2234116,5.348485 l 4.1828418,0.0099 0.001,-2.027612 -4.1829958,-0.01 C 5.079789,14.935887 3.6277373,13.448949 3.6294407,11.624093 z m 4.286523,1.077349 8.3658372,0.01975 0.0025,-2.134436 -8.3658383,-0.01975 -0.00255,2.134438 z m 9.4178062,-6.3810842 -4.182842,-0.00992 -0.0025,2.0277389 4.183149,0.0099 c 1.788094,0.00422 3.240146,1.491081 3.23829,3.3160363 -0.0024,1.824972 -1.456708,3.304955 -3.244961,3.300732 l -4.182841,-0.01 -0.001,2.027705 4.182995,0.01 c 2.88613,0.0068 5.230883,-2.378219 5.233847,-5.323734 0.003,-2.945515 -2.337285,-5.3416136 -5.223415,-5.3484866 z"
     id="path3025"
     inkscape:connector-curvature="0" />
</svg>
