<?xml version="1.0" encoding="UTF-8" standalone="no"?>
<svg
   xmlns:dc="http://purl.org/dc/elements/1.1/"
   xmlns:cc="http://creativecommons.org/ns#"
   xmlns:rdf="http://www.w3.org/1999/02/22-rdf-syntax-ns#"
   xmlns:svg="http://www.w3.org/2000/svg"
   xmlns="http://www.w3.org/2000/svg"
   xmlns:sodipodi="http://sodipodi.sourceforge.net/DTD/sodipodi-0.dtd"
   xmlns:inkscape="http://www.inkscape.org/namespaces/inkscape"
   fill="#000000"
   height="18"
   viewBox="0 0 24 24"
   width="18"
   id="svg2997"
   version="1.1"
   inkscape:version="0.48.4 r9939"
   sodipodi:docname="ic_web_link_black_18px.svg"
   inkscape:export-filename="C:\Users\99GU2079\Google Drive\Extensiones Chrome\Librerias\quill\examples\img\ic_web_link_black_18px.png"
   inkscape:export-xdpi="90"
   inkscape:export-ydpi="90">
  <metadata
     id="metadata3007">
    <rdf:RDF>
      <cc:Work
         rdf:about="">
        <dc:format>image/svg+xml</dc:format>
        <dc:type
           rdf:resource="http://purl.org/dc/dcmitype/StillImage" />
        <dc:title />
      </cc:Work>
    </rdf:RDF>
  </metadata>
  <defs
     id="defs3005" />
  <sodipodi:namedview
     pagecolor="#ffffff"
     bordercolor="#666666"
     borderopacity="1"
     objecttolerance="10"
     gridtolerance="10"
     guidetolerance="10"
     inkscape:pageopacity="0"
     inkscape:pageshadow="2"
     inkscape:window-width="1440"
     inkscape:window-height="847"
     id="namedview3003"
     showgrid="false"
     inkscape:zoom="13.111111"
     inkscape:cx="36.996889"
     inkscape:cy="19.988082"
     inkscape:window-x="-8"
     inkscape:window-y="-8"
     inkscape:window-maximized="1"
     inkscape:current-layer="svg2997" />
  <path
     d="M0 0h24v24H0z"
     fill="none"
     id="path3001" />
  <path
     d="M 3.6314408,11.62406 C 3.6339135,9.7990868 5.0884593,8.3190831 6.8765545,8.3233069 l 4.1826855,0.00996 0.001,-2.0277094 -4.1826861,-0.00994 C 3.9911344,6.2888375 1.646534,8.6738384 1.6435706,11.619355 c -0.00297,2.945513 2.3372812,5.341627 5.2234116,5.348485 l 4.1828418,0.0099 0.001,-2.027612 -4.1829958,-0.01 C 5.079789,14.935887 3.6277373,13.448949 3.6294407,11.624093 z m 4.286523,1.077349 8.3658372,0.01975 0.0025,-2.134436 -8.3658383,-0.01975 -0.00255,2.134438 z m 9.4178062,-6.3810842 -4.182842,-0.00992 -0.0025,2.0277389 4.183149,0.0099 c 1.788094,0.00422 3.240146,1.491081 3.23829,3.3160363 -0.0024,1.824972 -1.456708,3.304955 -3.244961,3.300732 l -4.182841,-0.01 -0.001,2.027705 4.182995,0.01 c 2.88613,0.0068 5.230883,-2.378219 5.233847,-5.323734 0.003,-2.945515 -2.337285,-5.3416136 -5.223415,-5.3484866 z"
     id="path3025"
     inkscape:connector-curvature="0" />
  <text
     xml:space="preserve"
     style="font-size:34.86094666px;font-style:normal;font-weight:normal;line-height:125%;letter-spacing:0px;word-spacing:0px;fill:#000000;fill-opacity:1;stroke:none;font-family:Sans"
     x="1.0396097"
     y="3.6606405"
     id="text2991"
     sodipodi:linespacing="125%"
     transform="scale(0.99989725,1.0001028)"><tspan
       sodipodi:role="line"
       id="tspan2993"
       x="1.0396097"
       y="3.6606405"
       style="font-size:3.48609504px;-inkscape-font-specification:Sans Bold;font-family:Sans;font-weight:bold;font-style:normal;font-stretch:normal;font-variant:normal;text-anchor:start;text-align:start;writing-mode:lr;line-height:125%">WWW</tspan></text>
</svg>
