<?xml version="1.0" encoding="UTF-8" standalone="no"?>
<!-- Generator: Adobe Illustrator 18.1.1, SVG Export Plug-In . SVG Version: 6.00 Build 0)  -->

<svg
   xmlns:dc="http://purl.org/dc/elements/1.1/"
   xmlns:cc="http://creativecommons.org/ns#"
   xmlns:rdf="http://www.w3.org/1999/02/22-rdf-syntax-ns#"
   xmlns:svg="http://www.w3.org/2000/svg"
   xmlns="http://www.w3.org/2000/svg"
   xmlns:sodipodi="http://sodipodi.sourceforge.net/DTD/sodipodi-0.dtd"
   xmlns:inkscape="http://www.inkscape.org/namespaces/inkscape"
   version="1.1"
   id="Capa_1"
   x="0px"
   y="0px"
   viewBox="0 0 456.552 456.552"
   style="enable-background:new 0 0 456.552 456.552;"
   xml:space="preserve"
   inkscape:version="0.91 r13725"
   sodipodi:docname="link74con+.svg"><metadata
     id="metadata3377"><rdf:RDF><cc:Work
         rdf:about=""><dc:format>image/svg+xml</dc:format><dc:type
           rdf:resource="http://purl.org/dc/dcmitype/StillImage" /><dc:title></dc:title></cc:Work></rdf:RDF></metadata><defs
     id="defs3375" /><sodipodi:namedview
     pagecolor="#ffffff"
     bordercolor="#666666"
     borderopacity="1"
     objecttolerance="10"
     gridtolerance="10"
     guidetolerance="10"
     inkscape:pageopacity="0"
     inkscape:pageshadow="2"
     inkscape:window-width="1920"
     inkscape:window-height="1017"
     id="namedview3373"
     showgrid="false"
     inkscape:zoom="3.7148014"
     inkscape:cx="232.3139"
     inkscape:cy="228.276"
     inkscape:window-x="-8"
     inkscape:window-y="-8"
     inkscape:window-maximized="1"
     inkscape:current-layer="Capa_1" /><g
     id="g3337"><path
       d="M75.253,356.732c-6.242,0-12.522-0.822-18.715-2.479c-18.544-4.969-34.042-16.862-43.641-33.486l-3.28-5.686   c-19.817-34.322-8.015-78.362,26.304-98.176l147.856-85.366c34.326-19.806,78.362-8.008,98.172,26.307l3.284,5.686   c19.817,34.322,8.015,78.366-26.304,98.179l-13.082,7.55c-6.427,3.721-14.631,1.514-18.341-4.913   c-3.71-6.424-1.511-14.635,4.913-18.341l13.082-7.553c10.414-6.015,17.862-15.722,20.974-27.335   c3.109-11.613,1.514-23.744-4.501-34.158l-3.28-5.686c-12.414-21.488-39.991-28.888-61.49-16.477L49.348,240.162   c-21.495,12.407-28.884,39.994-16.474,61.49l3.28,5.686c6.015,10.414,15.719,17.862,27.335,20.974   c11.606,3.119,23.74,1.521,34.154-4.497l33.025-19.069c6.434-3.7,14.635-1.497,18.345,4.917c3.707,6.424,1.507,14.635-4.917,18.345   l-33.025,19.065C99.997,353.465,87.705,356.732,75.253,356.732z"
       id="path3339" /><path
       d="M236.918,334.628c-24.859,0-49.065-12.89-62.36-35.92l-3.284-5.686c-19.817-34.322-8.015-78.366,26.304-98.179l13.082-7.55   c6.434-3.714,14.638-1.504,18.341,4.913c3.71,6.424,1.511,14.635-4.913,18.341l-13.082,7.553   c-10.414,6.015-17.862,15.722-20.974,27.335c-3.109,11.613-1.514,23.744,4.501,34.158l3.28,5.686   c12.411,21.488,39.998,28.884,61.49,16.477l147.856-85.366c21.495-12.411,28.888-39.994,16.474-61.49l-3.28-5.686   c-6.015-10.414-15.719-17.862-27.335-20.974c-11.596-3.105-23.737-1.511-34.154,4.497l-33.025,19.069   c-6.424,3.71-14.635,1.507-18.345-4.917c-3.707-6.424-1.507-14.635,4.917-18.345l33.025-19.065   c16.624-9.603,35.983-12.145,54.534-7.179c18.544,4.969,34.042,16.862,43.641,33.486l3.28,5.686   c9.599,16.624,12.152,35.994,7.183,54.538c-4.969,18.541-16.862,34.042-33.486,43.638L272.73,325.015   C261.442,331.529,249.102,334.628,236.918,334.628z"
       id="path3341" /></g><g
     id="g3343" /><g
     id="g3345" /><g
     id="g3347" /><g
     id="g3349" /><g
     id="g3351" /><g
     id="g3353" /><g
     id="g3355" /><g
     id="g3357" /><g
     id="g3359" /><g
     id="g3361" /><g
     id="g3363" /><g
     id="g3365" /><g
     id="g3367" /><g
     id="g3369" /><g
     id="g3371" /><ellipse
     style="fill:#000000;fill-rule:evenodd;stroke:#000000;stroke-width:1px;stroke-linecap:butt;stroke-linejoin:miter;stroke-opacity:1"
     id="path3379"
     cx="383.60059"
     cy="276.7308"
     rx="71.605446"
     ry="66.759964" /><flowRoot
     xml:space="preserve"
     id="flowRoot3381"
     style="fill:black;stroke:none;stroke-opacity:1;stroke-width:1px;stroke-linejoin:miter;stroke-linecap:butt;fill-opacity:1;font-family:sans-serif;font-style:normal;font-weight:normal;font-size:40px;line-height:125%;letter-spacing:0px;word-spacing:0px"><flowRegion
       id="flowRegion3383"><rect
         id="rect3385"
         width="71.067055"
         height="61.914482"
         x="343.49078"
         y="246.04277" /></flowRegion><flowPara
       id="flowPara3387"></flowPara></flowRoot><flowRoot
     xml:space="preserve"
     id="flowRoot3389"
     style="fill:black;stroke:none;stroke-opacity:1;stroke-width:1px;stroke-linejoin:miter;stroke-linecap:butt;fill-opacity:1;font-family:sans-serif;font-style:normal;font-weight:normal;font-size:40px;line-height:125%;letter-spacing:0px;word-spacing:0px"><flowRegion
       id="flowRegion3391"><rect
         id="rect3393"
         width="99.063171"
         height="94.756073"
         x="326.80078"
         y="212.66278" /></flowRegion><flowPara
       id="flowPara3395"></flowPara></flowRoot><text
     xml:space="preserve"
     style="font-style:normal;font-weight:normal;font-size:187.13803101px;line-height:125%;font-family:sans-serif;letter-spacing:0px;word-spacing:0px;fill:#ffffff;fill-opacity:1;stroke:none;stroke-width:1px;stroke-linecap:butt;stroke-linejoin:miter;stroke-opacity:1"
     x="299.49194"
     y="342.30042"
     id="text3397"
     sodipodi:linespacing="125%"
     transform="scale(1.0182657,0.98206195)"><tspan
       sodipodi:role="line"
       id="tspan3399"
       x="299.49194"
       y="342.30042">+</tspan></text>
</svg>